<svg width="39" height="35" viewBox="0 0 39 35" fill="none" xmlns="http://www.w3.org/2000/svg">
<path d="M38.7116 31.748C38.0576 31.891 37.3987 31.9458 36.7333 31.8447C36.3248 31.7822 35.8423 31.3885 35.8524 31.3666C35.6954 31.2713 35.5473 31.1224 35.3784 31.0941C35.078 31.0438 34.8347 30.9317 34.6289 30.7108C33.9779 30.0124 33.2841 29.3655 32.4593 28.8708C32.2841 28.7657 30.8217 27.8071 30.4286 27.2272C30.3292 27.081 30.1518 26.9869 30.0053 26.8748C29.7904 26.7106 29.0195 26.009 28.9092 25.7416C28.7914 25.4568 28.4686 25.2384 28.2007 25.0374C27.9064 24.8158 27.5325 24.7133 27.275 24.4221C27.2212 24.3616 27.0229 24.3332 26.9759 24.379C26.7122 24.6322 26.3837 24.5388 26.0831 24.5826C25.655 24.6451 25.2156 24.6573 24.7993 24.763C24.4789 24.8448 24.2072 25.0509 24.0334 25.3699C23.8249 25.7513 22.9083 27.3638 22.6945 27.8064C22.4498 28.3135 21.8282 29.8603 21.7768 30.1271C21.7482 30.2752 21.8306 30.3493 21.9957 30.3931C22.351 30.4885 22.7078 30.6663 22.7505 31.0638C22.7788 31.3286 22.6352 31.6121 22.5608 31.8859C22.5546 31.9091 22.4972 31.9278 22.4615 31.9323C21.7902 32.0205 21.1218 32.1603 20.4392 32.027C20.2422 31.9896 20.1654 31.9046 20.107 31.6875C19.9311 31.0342 20.126 30.3989 20.1245 29.756C20.1245 29.5646 20.2741 28.3843 20.3749 27.9849C20.4981 27.4953 21.0443 24.4853 21.0701 24.1767C20.8471 24.1193 20.6426 24.0678 20.4388 24.0137C20.3863 23.9995 20.3177 23.9911 20.2872 23.9544C20.0777 23.6967 16.2317 23.9138 15.9984 23.9486C15.6761 23.9969 14.7337 24.1348 14.586 24.1432C14.4014 24.1535 14.1957 24.1702 14.0323 24.1026C13.6152 23.9306 13.0086 24.1599 12.8536 24.665C12.719 25.1018 12.5423 25.5296 12.2202 25.8827C11.944 26.1848 11.6894 26.5095 11.443 26.8355C11.209 27.1467 10.9965 27.4734 10.7772 27.7948C10.6553 27.9733 10.5243 28.1479 10.4229 28.338C10.2561 28.6504 10.3209 28.9532 10.5399 29.2116C10.8677 29.5994 11.2117 29.9731 11.5501 30.3513C11.6177 30.4273 11.7004 30.4911 11.7586 30.5729C11.9265 30.8055 12.1247 30.924 12.4221 30.8222C12.5019 30.7945 12.6117 30.8158 12.6955 30.8467C13.0543 30.9801 13.3616 31.1959 13.5572 31.5257C13.6238 31.6378 13.6236 31.8189 13.5927 31.9542C13.4846 32.4271 13.4086 32.5037 12.9152 32.4999C12.2612 32.4947 11.6071 32.4515 10.9543 32.4064C10.7899 32.3955 9.26954 30.5168 9.20151 30.4692C8.66561 30.1032 8.40969 29.5318 8.12515 28.9867C7.91662 28.5853 7.74313 28.1653 7.5661 27.7478C7.52913 27.6608 7.5263 27.5487 7.54032 27.4527C7.6097 26.9792 7.69844 26.5083 7.76075 26.0341C7.77592 25.9188 7.9462 24.6663 7.81045 24.58C7.74924 24.5407 7.64307 24.5349 7.57002 24.5562C7.0095 24.723 6.45258 24.9021 5.89333 25.0728C5.45524 25.2069 5.02281 25.3866 4.5741 25.451C4.09261 25.5206 3.68641 25.7416 3.33075 26.0115C2.78096 26.4284 2.52317 27.0668 2.30531 27.7092C2.17754 28.086 2.02785 28.4565 1.92773 28.8405C1.85963 29.1014 1.72145 29.5943 1.7192 29.8661C1.71637 30.2959 1.42173 30.7153 0.963577 31.1315C0.804878 31.2758 0.494553 30.9839 0.281132 30.8061C-0.0851364 30.5027 0.0189056 30.1419 0.000579834 29.6278C-0.00250626 29.5453 0.662704 27.9372 1.09154 26.5643C1.34007 25.7693 1.38463 25.0542 1.49722 24.763C1.64885 24.3693 2.06952 23.4583 2.13324 23.4248C2.49758 23.2354 2.79671 22.9854 3.03046 22.635C3.16768 22.4295 3.41113 22.298 3.57908 22.1086C3.68158 21.9926 3.77868 21.8354 3.79463 21.6873C3.82189 21.4347 4.24957 21.0301 4.26037 20.9631C4.31728 20.6191 4.37412 20.2744 4.40518 19.9278C4.42415 19.7107 4.46209 18.9872 4.49771 18.8454C4.5125 18.7849 4.55153 18.7147 4.53411 18.6644C4.38949 18.2495 4.65622 17.9332 4.79569 17.5949C4.97034 17.1717 5.21751 16.7761 5.24574 16.3032C5.25616 16.128 5.24953 15.9514 5.25488 15.7762C5.25693 15.7073 5.25391 15.6306 5.28098 15.5707C5.51851 15.0462 5.29179 14.6075 5.02583 14.1804C4.69808 13.6527 4.3504 13.1373 4.0321 12.6039C3.87835 12.3462 3.77489 12.0595 3.64371 11.7882C3.5886 11.6677 3.52391 11.5524 3.45035 11.4429C3.17334 11.048 2.99084 10.615 2.85658 10.1512C2.78623 9.90828 2.61963 9.69374 2.54497 9.4515C2.38229 8.92385 2.24847 8.38654 2.10893 7.8518C2.08997 7.779 1.36675 4.85536 3.40862 2.12756C3.48141 2.03028 3.64596 1.99163 3.77032 1.92913C3.81411 1.90723 3.88182 1.90787 3.90529 1.87437C4.29169 1.32675 6.08329 0.456352 6.22983 0.583273C6.26565 0.614197 6.35773 0.618065 6.40236 0.594227C6.94713 0.30109 8.47663 0.730165 9.09933 1.35381C9.56206 1.81639 9.49743 1.99936 9.63562 2.47417C9.72699 2.78664 9.76834 3.26597 9.59562 3.42317C9.34915 3.64608 8.90238 3.64415 8.57347 3.40577C8.44757 3.31429 8.34597 3.18995 8.22276 3.0946C7.78312 2.75443 7.28208 2.53667 6.74412 2.74154C6.37599 2.88199 6.02792 3.13003 5.73393 3.39933C5.15572 3.92891 4.81164 4.60023 4.77466 5.39975C4.7582 5.75861 4.72708 6.12712 4.78321 6.47824C4.90963 7.27197 5.02962 8.07472 5.25867 8.84138C5.47511 9.56424 5.79341 10.2639 6.13865 10.9378C6.30584 11.2638 6.62825 11.5138 6.89691 11.7818C7.07342 11.9577 7.29308 12.0897 7.47055 12.2643C8.00799 12.7946 8.6622 12.8699 9.34555 12.7185C11.315 12.2843 13.296 12.2676 15.2892 12.4872C16.2749 12.5961 17.2656 12.6651 18.248 12.7978C19.6875 12.9923 23.8264 13.6147 24.4605 13.6997C24.4841 13.7004 24.5073 13.7055 24.5289 13.7146C25.1784 14.0811 25.8724 14.0161 26.5464 13.8589C27.1517 13.7184 27.7937 13.6656 28.3268 13.2823C28.8369 12.915 29.3766 12.5858 29.8652 12.1928C30.2528 11.881 30.6424 11.6085 31.1164 11.4332C31.8448 11.162 32.4596 10.713 32.9491 10.097C33.1627 9.82839 33.3968 9.5752 33.6285 9.322C33.7195 9.22214 33.8291 9.13968 33.9301 9.04884L34.1673 9.36774C34.3672 9.33167 34.4638 9.38965 34.4706 9.64091C34.4784 9.93663 34.454 10.2343 34.4228 10.5293C34.3838 10.8998 34.456 11.1691 34.8501 11.3308C35.3208 11.5234 35.75 11.803 36.0582 12.2276C36.1495 12.3539 36.2321 12.4853 36.3054 12.6225C36.5484 13.0761 36.7735 13.5367 37.1846 13.8776C37.3494 14.0141 37.48 14.2036 37.5892 14.3904C37.646 14.487 37.6661 14.6494 37.6255 14.7518C37.5146 15.0295 37.3655 15.293 37.2256 15.5591C37.1824 15.6409 37.1065 15.7066 37.0692 15.7904C36.8201 16.3509 36.2392 16.6401 35.6617 16.5203C35.047 16.3927 34.51 16.5712 34.0583 17.0067C34.0135 17.0499 33.9724 17.1311 33.9255 17.133C33.5168 17.153 33.1239 18.071 33.0499 18.2121C32.9127 18.4756 32.5571 19.2913 32.5583 19.4427C32.5631 19.7693 32.5963 20.0953 32.602 20.4219C32.6104 20.8819 32.7111 22.693 32.737 23.1401C32.7559 23.4719 32.718 23.8062 32.7309 24.1387C32.7356 24.2617 32.8082 24.3835 32.8552 24.504C32.9762 24.8139 33.1038 25.1212 33.2219 25.4323C33.4541 26.0437 34.7841 27.7916 35.0747 28.1389C35.2502 28.3476 36.5788 29.7966 37.1363 30.2334C37.2821 30.3474 37.5404 30.3912 37.7287 30.359C37.9732 30.3171 38.1685 30.3429 38.371 30.4711C38.4745 30.5362 38.6091 30.5497 38.7107 30.6212C39.0479 30.8557 39.1418 31.404 38.7116 31.748Z" fill="#040606"/>
</svg>